<svg width="498" height="441" viewBox="0 0 498 441" fill="none" xmlns="http://www.w3.org/2000/svg">
<path d="M13 0L13 264" stroke="#BC840B" stroke-width="23"/>
<path d="M38.6769 228.591L70.3668 136.385L72.317 130.711L172.705 81.6769L496.609 192.998L411.615 440.3L87.7108 328.979L38.6769 228.591Z" fill="#E7C979" stroke="black"/>
<circle cx="84.5" cy="189.5" r="14" fill="#070502" stroke="#5F3E19" stroke-width="9"/>
<path d="M376.862 247.025C376.862 240.388 382.137 235 388.644 235C388.644 239.539 388.643 277.758 388.643 284.74H384.506C386.08 283.231 387.606 276.058 387.898 270.93C386.453 275.782 382.315 278.882 377.008 278.882C370.371 278.882 364.999 273.607 364.999 267.116C364.999 260.608 370.371 255.35 377.008 255.35C378.307 255.35 379.556 255.545 380.725 255.918C378.355 253.711 376.862 250.547 376.862 247.025Z" fill="#BAC9BC"/>
<path d="M401.137 247.025C401.137 240.388 395.862 235 389.355 235C389.355 239.539 389.356 277.758 389.356 284.74H393.493C391.919 283.231 390.393 276.058 390.101 270.93C391.546 275.782 395.684 278.882 400.991 278.882C407.628 278.882 412.999 273.607 412.999 267.116C412.999 260.608 407.628 255.35 400.991 255.35C399.692 255.35 398.443 255.545 397.274 255.918C399.644 253.711 401.137 250.547 401.137 247.025Z" fill="#BAC9BC"/>
<path d="M110.002 311.549C106.039 315.407 100.255 322.365 100.255 322.365L115.365 265.664L125.458 268.354C125.458 268.354 120.846 268.809 116.876 273.536C115.937 274.653 115.063 276.005 114.235 277.429C116.994 274.598 120.68 273.223 124.199 274.16C129.725 275.633 133.057 282.207 131.248 288.996C129.074 297.155 125.958 299.277 121.471 302.876C117.023 306.446 113.95 307.687 110.002 311.549Z" fill="#BAC9BC"/>
<path d="M96.563 307.968C98.0808 313.286 99.6346 322.2 99.6346 322.2L114.745 265.499L104.652 262.809C104.652 262.809 108.425 265.499 109.517 271.575C109.775 273.011 109.86 274.619 109.87 276.266C108.886 272.437 106.373 269.41 102.854 268.472C97.3282 267 91.1665 271.044 89.3573 277.834C87.1833 285.992 88.8297 289.383 90.931 294.738C93.0123 300.047 95.0603 302.654 96.563 307.968Z" fill="#BAC9BC"/>
<path d="M377.786 364.264L398.796 429.988L366.501 404.08L377.786 364.264Z" fill="#CDA2AC"/>
<path d="M378.725 363.964L399.734 429.688L411.012 389.851L378.725 363.964Z" fill="#CDA2AC"/>
<path d="M160.778 169.438C160.928 170.056 160.952 170.524 160.849 170.841C160.733 171.197 160.525 171.502 160.223 171.755C159.922 172.007 159.562 172.241 159.142 172.455C158.774 172.642 158.387 172.823 157.98 172.998C157.573 173.172 157.219 173.386 156.918 173.638C156.381 174.077 155.884 174.529 155.426 174.994C155.021 175.432 154.589 175.818 154.131 176.151C153.712 176.497 153.259 176.744 152.773 176.893C152.326 177.054 151.806 177.039 151.211 176.846C151.013 176.781 150.788 176.664 150.536 176.495C150.324 176.339 150.099 176.222 149.862 176.145C149.426 176.003 148.984 176.013 148.538 176.175C148.143 176.31 147.709 176.366 147.234 176.343C146.628 176.321 146.088 176.299 145.613 176.277C145.178 176.267 144.592 176.252 143.854 176.231L143.14 176C142.704 175.858 142.23 175.835 141.717 175.932C141.243 176.041 140.48 176.165 139.427 176.305C138.9 176.31 138.247 176.163 137.467 175.866C136.727 175.582 135.849 175.385 134.833 175.274C134.702 175.275 134.492 175.382 134.203 175.595C133.928 175.769 133.744 175.862 133.652 175.876C133.046 175.855 132.367 175.788 131.615 175.675C130.876 175.523 130.151 175.462 129.439 175.494C128.781 175.499 128.162 175.649 127.585 175.944C127.047 176.251 126.643 176.821 126.373 177.653C126.167 178.287 126.075 179.111 126.096 180.126C126.13 181.1 126.184 182.082 126.257 183.069C126.383 184.03 126.522 184.886 126.673 185.636C126.863 186.398 126.999 186.858 127.079 187.016C127.307 187.528 127.482 188.067 127.605 188.632C127.741 189.158 127.858 189.744 127.955 190.389C128.105 191.007 128.242 191.665 128.366 192.362C128.542 193.033 128.792 193.749 129.114 194.511C129.302 195.01 129.537 195.502 129.817 195.987C130.098 196.473 130.365 196.932 130.619 197.365C130.873 197.798 131.067 198.211 131.202 198.605C131.376 199.012 131.418 199.355 131.328 199.632C131.332 200.159 131.655 200.921 132.295 201.917C132.935 202.914 133.458 204.069 133.864 205.384C133.904 205.528 134.005 205.758 134.166 206.073C134.339 206.348 134.506 206.643 134.667 206.958C134.867 207.286 135.021 207.621 135.129 207.963C135.29 208.278 135.331 208.554 135.254 208.792C135.151 209.109 135.239 209.378 135.518 209.6C135.796 209.822 136.003 210.13 136.137 210.524C136.258 210.826 136.307 211.149 136.283 211.492C136.26 211.834 136.315 212.203 136.45 212.597C136.694 213.465 136.998 214.418 137.362 215.456C137.778 216.467 137.794 217.567 137.408 218.756C137.163 219.509 136.76 220.211 136.199 220.861C136.055 221.033 135.858 221.101 135.607 221.063C135.396 221.038 135.22 221.178 135.077 221.482C134.738 221.986 134.406 222.469 134.08 222.933C133.767 223.357 133.309 223.756 132.706 224.13C132.103 224.503 131.453 224.818 130.757 225.074C130.061 225.33 129.326 225.704 128.552 226.198C127.988 226.585 127.424 226.905 126.86 227.16C126.295 227.415 125.665 227.67 124.968 227.926C124.312 228.195 123.537 228.491 122.643 228.814C121.75 229.137 120.686 229.58 119.452 230.143C119.032 230.357 118.493 230.599 117.837 230.867C117.193 231.096 116.304 231.202 115.171 231.185C114.552 231.203 113.747 231.117 112.757 230.927C111.768 230.737 110.659 230.509 109.432 230.242C108.217 229.935 106.923 229.602 105.55 229.244C104.177 228.886 102.804 228.528 101.43 228.17C100.401 227.967 99.3518 227.758 98.2828 227.542C97.2267 227.287 96.1636 226.985 95.0936 226.638C93.4291 226.098 92.1733 225.581 91.3261 225.086C90.5314 224.566 90.282 223.849 90.578 222.938C90.7066 222.542 90.9017 222.211 91.1631 221.945C91.4771 221.653 91.8178 221.413 92.1853 221.226C92.5656 220.999 92.9395 220.791 93.307 220.604C93.6745 220.417 94.0023 220.217 94.2905 220.003C94.8798 219.538 95.4038 219.138 95.8623 218.805C96.3338 218.433 96.7795 218.139 97.1994 217.925C97.659 217.724 98.0929 217.602 98.501 217.559C98.9092 217.516 99.3709 217.579 99.886 217.746C100.441 217.926 101.016 218.178 101.612 218.503C102.22 218.788 102.796 219.107 103.339 219.458C103.934 219.783 104.47 220.088 104.947 220.375C105.436 220.621 105.839 220.796 106.156 220.899C106.672 221.066 107.186 221.167 107.7 221.203C108.267 221.212 108.868 221.319 109.502 221.525C110.175 221.743 110.883 222.061 111.624 222.477C112.418 222.866 113.151 223.17 113.825 223.388C114.816 223.71 115.984 224.024 117.331 224.329C118.69 224.595 120.016 224.763 121.307 224.832C122.599 224.901 123.719 224.826 124.666 224.608C125.665 224.363 126.274 223.903 126.493 223.23C126.609 222.873 126.631 222.333 126.559 221.608C126.488 220.884 126.356 220.075 126.165 219.18C126.013 218.299 125.808 217.378 125.55 216.418C125.292 215.458 125.041 214.545 124.797 213.677C124.663 213.283 124.455 212.909 124.176 212.555C123.909 212.162 123.728 211.775 123.633 211.393C123.511 210.959 123.475 210.531 123.524 210.109C123.587 209.648 123.55 209.22 123.415 208.825C123.172 208.089 122.811 207.381 122.331 206.699C121.904 205.991 121.57 205.335 121.328 204.731C120.911 203.719 120.573 202.602 120.313 201.379C120.053 200.155 119.688 198.92 119.217 197.671C119.069 197.317 118.955 197.061 118.875 196.903C118.795 196.746 118.666 196.266 118.488 195.464C118.232 194.767 117.864 194.078 117.385 193.397C116.945 192.728 116.597 192.046 116.341 191.349C116.247 191.1 116.238 190.856 116.315 190.618C116.445 190.354 116.456 190.117 116.349 189.907C116.028 189.277 115.654 188.608 115.227 187.899C114.813 187.152 114.747 186.342 115.03 185.47C115.223 184.875 115.289 184.064 115.228 183.037C115.207 182.023 115.383 180.941 115.756 179.792C116.014 178.999 116.398 178.423 116.909 178.063C117.42 177.703 117.825 177.265 118.124 176.749C118.385 176.483 118.561 176.212 118.651 175.935C118.754 175.618 118.936 175.326 119.198 175.061C119.303 175.007 119.481 174.999 119.731 175.037C119.995 175.035 120.159 175 120.225 174.934C120.499 174.629 120.747 174.403 120.97 174.256C121.246 174.083 121.561 173.922 121.915 173.774C122.283 173.587 122.742 173.386 123.294 173.171C123.846 172.955 124.581 172.647 125.5 172.244C125.645 172.203 125.769 172.091 125.873 171.905C125.99 171.68 126.121 171.548 126.266 171.507C126.62 171.359 126.969 171.297 127.312 171.321C127.654 171.344 127.977 171.296 128.279 171.175C129.581 170.809 130.711 170.497 131.671 170.239C132.671 169.994 133.591 169.789 134.433 169.624C135.288 169.42 136.124 169.275 136.94 169.19C137.756 169.104 138.692 169.057 139.746 169.049L148.639 168.98C149.217 168.685 149.869 168.634 150.595 168.826C151.334 168.978 152.151 169.024 153.047 168.965C153.981 168.786 155.107 168.758 156.426 168.879C157.757 168.961 159.208 169.147 160.778 169.438ZM185.108 204.606L185.05 204.785C184.947 205.102 184.549 205.586 183.856 206.237C183.215 206.861 182.489 207.48 181.676 208.092C180.877 208.665 180.084 209.152 179.296 209.554C178.548 209.968 177.996 210.117 177.64 210.001C177.045 209.808 176.621 209.496 176.367 209.063C176.126 208.59 175.964 208.078 175.881 207.525C175.797 206.972 175.694 206.413 175.571 205.847C175.501 205.255 175.305 204.71 174.985 204.211C174.919 204.146 174.759 203.963 174.507 203.662C174.293 203.374 174.041 203.072 173.748 202.759C173.496 202.457 173.237 202.176 172.971 201.915C172.705 201.653 172.513 201.503 172.394 201.465C171.681 201.233 171.041 201.179 170.476 201.302C169.95 201.438 169.451 201.692 168.98 202.065C168.561 202.41 168.136 202.842 167.705 203.359C167.287 203.837 166.843 204.328 166.373 204.832C166.033 205.204 165.522 205.63 164.841 206.109C164.172 206.549 163.722 207.06 163.489 207.642C163.463 207.721 163.431 207.82 163.393 207.939C163.394 208.071 163.381 208.176 163.356 208.256C163.343 208.295 163.146 208.428 162.766 208.655C162.425 208.895 162.177 209.121 162.02 209.333C161.668 209.745 161.316 210.288 160.966 210.962C160.655 211.65 160.311 212.371 159.935 213.125C159.598 213.892 159.242 214.652 158.866 215.406C158.542 216.133 158.224 216.775 157.912 217.331C157.821 217.476 157.613 217.781 157.287 218.245C156.974 218.669 156.635 219.172 156.271 219.755C155.907 220.338 155.53 220.96 155.139 221.622C154.789 222.296 154.517 222.931 154.324 223.525C154.131 224.12 153.964 224.701 153.824 225.269C153.696 225.797 153.562 226.279 153.42 226.715C153.163 227.507 152.801 228.353 152.333 229.253C151.918 230.126 151.55 231.058 151.229 232.049C151.036 232.643 150.896 233.277 150.809 233.949C150.774 234.595 150.66 235.215 150.467 235.81C150.403 236.008 150.319 236.2 150.215 236.385C150.124 236.531 150.046 236.703 149.982 236.901C149.943 237.02 149.938 237.171 149.966 237.355C149.94 237.435 149.994 237.606 150.128 237.868C150.275 238.091 150.454 238.346 150.668 238.635C150.881 238.923 151.12 239.198 151.386 239.459C151.651 239.721 151.923 239.896 152.2 239.986C152.596 240.115 153.176 240.084 153.939 239.894C154.714 239.664 155.529 239.381 156.383 239.044C157.249 238.669 158.077 238.28 158.864 237.879C159.691 237.49 160.361 237.182 160.873 236.954C161.542 236.645 162.186 236.351 162.803 236.069C163.472 235.761 164.214 235.366 165.027 234.885C165.092 234.819 165.257 234.785 165.52 234.783C165.784 234.781 165.948 234.746 166.014 234.68C166.406 234.282 166.661 234.036 166.779 233.943C166.936 233.862 167.31 233.655 167.9 233.321C168.215 233.161 168.582 232.907 169.001 232.562C169.46 232.229 169.938 231.902 170.436 231.582C170.987 231.235 171.512 230.967 172.011 230.779C172.55 230.603 173.038 230.586 173.473 230.728C173.632 230.779 173.831 230.91 174.069 231.119C174.348 231.34 174.416 231.669 174.275 232.105C174.133 232.541 173.892 232.879 173.551 233.119C173.211 233.359 172.817 233.559 172.37 233.721C171.976 233.856 171.562 233.984 171.128 234.106C170.694 234.228 170.32 234.37 170.005 234.53C169.585 234.744 169.225 235.044 168.925 235.428C168.638 235.773 168.324 236.065 167.983 236.305C166.974 236.985 165.812 237.594 164.499 238.131C163.186 238.668 161.991 239.244 160.915 239.859C159.905 240.407 158.948 240.994 158.043 241.621C157.192 242.22 156.194 242.663 155.05 242.949C154.865 242.976 154.608 242.959 154.278 242.895C153.988 242.845 153.744 242.853 153.547 242.921C153.1 243.082 152.655 243.376 152.21 243.801C151.818 244.199 151.431 244.446 151.05 244.541C150.656 244.676 150.03 244.714 149.173 244.655C148.343 244.648 147.651 244.687 147.099 244.77C146.967 244.771 146.823 244.878 146.666 245.09C146.549 245.315 146.445 245.434 146.353 245.448C146.261 245.462 146.07 245.443 145.779 245.393C145.476 245.382 145.14 245.339 144.77 245.263C144.44 245.199 144.11 245.136 143.781 245.073C143.451 245.009 143.226 244.958 143.107 244.92C142.988 244.881 142.796 244.731 142.531 244.47C142.292 244.261 142.04 244.026 141.774 243.764C141.548 243.516 141.342 243.273 141.156 243.038C140.956 242.842 140.857 242.744 140.857 242.744C140.656 242.284 140.606 241.83 140.708 241.381C140.849 240.945 140.891 240.411 140.834 239.779C140.665 238.41 140.563 237.172 140.528 236.066C140.532 234.972 140.753 233.751 141.191 232.404C141.268 232.166 141.371 231.849 141.5 231.453C141.668 231.069 141.843 230.666 142.024 230.243C142.245 229.833 142.479 229.449 142.726 229.091C143.013 228.746 143.288 228.507 143.551 228.373C143.667 228.017 143.703 227.634 143.66 227.226C143.631 226.778 143.674 226.376 143.789 226.019C143.945 225.676 144.146 225.325 144.394 224.967C144.641 224.609 144.843 224.259 144.998 223.915C145.257 223.254 145.554 222.54 145.891 221.773C146.24 220.967 146.609 220.167 146.998 219.373C147.387 218.579 147.81 217.818 148.265 217.09C148.76 216.375 149.269 215.751 149.792 215.22C149.936 215.048 150.072 214.763 150.201 214.367L150.394 213.773C150.574 213.218 150.912 212.649 151.408 212.065C151.944 211.494 152.519 210.936 153.134 210.391C153.789 209.859 154.431 209.366 155.06 208.913C155.701 208.421 156.238 207.982 156.67 207.596C156.801 207.464 156.924 207.285 157.041 207.06C157.171 206.795 157.327 206.583 157.511 206.424C157.629 206.331 157.793 206.296 158.004 206.321C158.255 206.359 158.439 206.331 158.557 206.238C159.501 205.624 160.464 205.017 161.448 204.416C162.444 203.776 163.401 203.057 164.317 202.259C164.565 202.033 164.807 201.761 165.042 201.443C165.289 201.085 165.55 200.754 165.824 200.449C166.099 200.144 166.4 199.891 166.728 199.691C167.095 199.503 167.549 199.454 168.09 199.542C168.13 199.555 168.281 199.494 168.543 199.36C168.858 199.2 169.2 199.026 169.567 198.838C169.987 198.624 170.381 198.423 170.748 198.236C171.129 198.009 171.424 197.842 171.634 197.735C172.251 197.453 172.907 197.119 173.602 196.731C174.337 196.357 175.086 196.008 175.847 195.686C176.609 195.364 177.319 195.134 177.977 194.997C178.687 194.834 179.3 194.835 179.815 195.003C180.805 195.324 181.495 195.899 181.884 196.726C182.312 197.566 182.794 198.511 183.329 199.561C183.423 199.81 183.597 200.151 183.851 200.584C184.105 201.017 184.326 201.483 184.514 201.982C184.742 202.494 184.911 202.987 185.02 203.461C185.169 203.947 185.198 204.329 185.108 204.606ZM207.182 209.276C207 209.567 206.609 210.097 206.009 210.866C205.422 211.596 204.901 212.39 204.446 213.25C203.771 214.52 203.241 215.816 202.856 217.137C202.471 218.457 202.039 219.653 201.56 220.724C200.873 222.166 200.1 223.536 199.24 224.834C198.42 226.145 197.647 227.514 196.92 228.943C196.232 230.253 195.7 231.219 195.322 231.841C194.985 232.477 194.673 233.032 194.387 233.509C194.14 233.998 193.901 234.534 193.668 235.116C193.435 235.697 193.133 236.563 192.759 237.712C192.618 238.148 192.489 238.544 192.373 238.901C192.31 239.231 192.227 239.554 192.124 239.871C191.944 240.426 191.651 240.922 191.246 241.36C190.854 241.759 190.568 242.235 190.388 242.79C190.246 243.226 190.138 243.695 190.063 244.196C189.988 244.697 189.873 245.186 189.719 245.661C189.577 246.097 189.408 246.415 189.212 246.614C189.056 246.826 188.879 246.966 188.682 247.033C188.524 247.114 188.353 247.168 188.169 247.195C188.037 247.196 187.886 247.257 187.716 247.377C187.467 247.603 187.154 247.961 186.776 248.452C186.45 248.915 186.228 249.194 186.11 249.287C185.835 249.46 185.506 249.529 185.124 249.492C184.741 249.456 184.379 249.492 184.037 249.6C183.289 249.882 182.396 250.337 181.36 250.965C180.377 251.565 179.387 252.186 178.39 252.826C177.446 253.44 176.581 253.947 175.793 254.348C174.993 254.79 174.434 254.959 174.117 254.856C173.919 254.791 173.773 254.7 173.68 254.582C173.614 254.517 173.626 254.346 173.716 254.068C173.831 253.712 174.033 253.427 174.322 253.214C174.61 253.001 174.924 252.774 175.265 252.534C175.633 252.347 175.987 252.133 176.327 251.893C176.721 251.627 177.047 251.295 177.308 250.898L177.327 250.838C177.584 250.045 177.929 249.456 178.361 249.071C178.793 248.685 179.041 248.394 179.105 248.195C179.182 247.958 179.154 247.773 179.022 247.643C178.889 247.512 178.855 247.348 178.919 247.149C178.97 246.991 179.081 246.786 179.25 246.534C179.472 246.256 179.7 245.957 179.935 245.639C180.17 245.321 180.384 244.997 180.579 244.666C180.814 244.348 180.964 244.09 181.028 243.891C181.182 243.416 181.252 243 181.236 242.645C181.272 242.262 181.355 241.873 181.483 241.477C181.664 240.922 182.009 240.464 182.52 240.105C183.071 239.758 183.398 239.426 183.501 239.109C183.512 238.937 183.544 238.772 183.596 238.614C183.647 238.455 183.705 238.277 183.769 238.079C184.091 237.088 184.505 236.149 185.012 235.262C185.559 234.389 186.106 233.58 186.653 232.838C187.201 232.096 187.683 231.42 188.1 230.811C188.557 230.214 188.849 229.718 188.978 229.322C189.042 229.124 189.067 228.978 189.053 228.886L189.131 228.648C189.272 228.213 189.334 227.751 189.317 227.263C189.34 226.789 189.422 226.334 189.564 225.898C189.692 225.501 189.953 225.104 190.345 224.706C190.79 224.281 191.142 223.804 191.401 223.274C191.856 222.414 192.282 221.37 192.681 220.142C193.093 218.873 193.525 217.743 193.979 216.752C194.328 215.945 194.757 215.23 195.266 214.607C195.775 213.984 196.049 213.613 196.088 213.494C196.005 213.073 195.871 212.678 195.683 212.311C195.509 211.904 195.322 211.668 195.124 211.604C194.807 211.501 194.471 211.523 194.117 211.671C193.762 211.819 193.388 212.026 192.995 212.292C192.654 212.532 192.301 212.812 191.934 213.131C191.581 213.41 191.266 213.637 190.991 213.81C190.545 214.104 189.883 214.458 189.003 214.873C188.163 215.302 187.454 215.663 186.877 215.957C186.497 216.184 186.15 216.51 185.837 216.934C185.537 217.318 185.109 217.421 184.555 217.241C184.396 217.189 184.264 217.124 184.158 217.046C184.104 216.941 184.123 216.75 184.213 216.472C184.328 216.116 184.517 215.805 184.779 215.539C185.092 215.247 185.42 214.981 185.761 214.741C186.114 214.461 186.455 214.221 186.783 214.021C187.163 213.794 187.484 213.548 187.745 213.282C188.268 212.751 189.034 212.146 190.044 211.466C191.066 210.746 192.226 210.006 193.525 209.245C194.863 208.496 196.306 207.76 197.856 207.036C199.457 206.286 201.092 205.568 202.76 204.883C203.259 204.695 203.62 204.527 203.843 204.381C204.106 204.247 204.309 204.159 204.454 204.119C204.611 204.039 204.75 204.018 204.868 204.056C205 204.055 205.205 204.1 205.482 204.19C206.79 204.614 207.591 205.115 207.886 205.693C208.193 206.231 208.218 206.896 207.96 207.689C207.883 207.926 207.78 208.177 207.65 208.442C207.52 208.707 207.364 208.985 207.182 209.276ZM229.561 217.461C229.444 217.686 229.287 217.766 229.088 217.702L228.91 217.644C228.672 217.567 228.515 217.647 228.438 217.885C228.399 218.004 228.36 218.123 228.322 218.242C228.336 218.334 228.33 218.419 228.304 218.499C228.24 218.697 227.933 219.035 227.383 219.514C226.833 219.992 226.087 220.539 225.143 221.152C224.251 221.739 223.189 222.314 221.954 222.877C220.773 223.413 219.504 223.812 218.149 224.073C217.399 224.224 216.551 224.408 215.604 224.626C214.67 224.805 213.707 224.734 212.716 224.412C212.637 224.386 212.538 224.354 212.419 224.315C212.353 224.25 212.28 224.204 212.201 224.179C212.161 224.166 211.989 224.088 211.685 223.946C211.381 223.803 211.037 223.648 210.654 223.479C210.31 223.324 209.946 223.162 209.563 222.994C209.179 222.825 208.921 222.676 208.788 222.545C208.47 222.311 208.203 221.786 207.985 220.97C207.781 220.115 207.492 219.321 207.117 218.586C206.93 218.218 206.71 217.884 206.457 217.583C206.217 217.242 205.997 216.908 205.797 216.58C205.636 216.265 205.495 215.956 205.374 215.654C205.306 215.325 205.323 215.002 205.426 214.685C205.545 214.724 205.965 214.51 206.686 214.043C207.46 213.549 208.286 213.029 209.164 212.482C210.095 211.908 210.967 211.381 211.78 210.9C212.594 210.419 213.099 210.211 213.297 210.275C213.456 210.327 213.633 210.253 213.829 210.054C214.065 209.868 214.287 209.655 214.496 209.416C214.718 209.138 214.953 208.886 215.202 208.66C215.463 208.394 215.713 208.234 215.949 208.179C216.452 208.386 216.725 208.76 216.768 209.3C216.812 209.839 216.764 210.459 216.625 211.159C216.485 211.858 216.3 212.63 216.07 213.475C215.892 214.294 215.812 215.078 215.831 215.829C215.85 216.58 216.06 217.283 216.461 217.939C216.874 218.555 217.616 219.037 218.686 219.384C218.923 219.462 219.148 219.512 219.359 219.537C219.609 219.575 219.873 219.573 220.149 219.531C220.426 219.489 220.761 219.401 221.155 219.266C221.589 219.144 222.128 218.969 222.772 218.74C223.363 218.537 223.914 218.256 224.426 217.897C224.989 217.51 225.526 217.137 226.037 216.777C226.601 216.391 227.185 216.076 227.789 215.834C228.393 215.592 229.032 215.515 229.704 215.602C229.732 215.786 229.767 216.017 229.809 216.293C229.863 216.53 229.846 216.787 229.755 217.064C229.73 217.143 229.684 217.216 229.619 217.283C229.606 217.322 229.587 217.382 229.561 217.461ZM252.141 236.159C251.87 236.992 251.619 237.699 251.386 238.28C251.154 238.862 250.914 239.397 250.668 239.887C250.461 240.389 250.214 240.879 249.928 241.355C249.642 241.832 249.317 242.361 248.952 242.944C248.185 244.228 247.457 245.525 246.769 246.835C246.094 248.105 245.334 249.435 244.488 250.826C244.397 250.971 244.201 251.17 243.9 251.423C243.638 251.689 243.344 251.988 243.017 252.32C242.69 252.652 242.364 252.983 242.037 253.315C241.75 253.66 241.521 253.959 241.352 254.21C240.897 254.939 240.367 255.49 239.764 255.863C239.201 256.25 238.566 256.788 237.86 257.479C237.52 257.851 237.22 258.301 236.961 258.83C236.714 259.32 236.427 259.664 236.099 259.865C235.982 259.958 235.699 260.085 235.253 260.247C234.845 260.421 234.366 260.616 233.814 260.831C233.302 261.059 232.77 261.281 232.219 261.496C231.706 261.724 231.286 261.938 230.959 262.138C230.736 262.285 230.5 262.471 230.251 262.697C230.042 262.936 229.833 263.109 229.623 263.216C229.386 263.271 229.129 263.253 228.852 263.163C228.614 263.086 228.37 263.094 228.121 263.188C228.003 263.282 227.859 263.454 227.69 263.706C227.573 263.931 227.435 264.017 227.277 263.966C227.198 263.94 227.079 263.901 226.92 263.85C226.814 263.772 226.722 263.72 226.642 263.694C226.484 263.643 226.056 263.745 225.36 264.001C224.676 264.217 223.914 264.473 223.073 264.77C222.272 265.079 221.497 265.375 220.748 265.657C220.039 265.953 219.566 266.128 219.329 266.182C218.987 266.291 218.639 266.353 218.283 266.369C217.967 266.397 217.638 266.466 217.296 266.574C216.888 266.617 216.553 266.705 216.29 266.839C216.015 267.012 215.753 267.146 215.503 267.24C215.24 267.374 214.971 267.462 214.695 267.503C214.418 267.545 214.062 267.495 213.626 267.354C213.507 267.315 213.295 267.159 212.99 266.884C212.685 266.61 212.399 266.276 212.132 265.883C211.853 265.53 211.612 265.123 211.411 264.663C211.25 264.217 211.233 263.795 211.362 263.399C211.4 263.28 211.459 263.167 211.537 263.061C211.628 262.916 211.699 262.764 211.751 262.605C211.789 262.486 211.802 262.381 211.788 262.289C211.634 261.143 211.401 260.038 211.09 258.974C210.831 257.882 210.901 256.722 211.3 255.493C211.441 255.057 211.642 254.641 211.903 254.243C212.176 253.806 212.441 253.192 212.699 252.399C213.02 251.408 213.328 250.259 213.62 248.953C213.926 247.606 214.285 246.299 214.696 245.031C215.082 243.842 215.692 242.572 216.524 241.222C217.357 239.871 218.309 238.559 219.379 237.286C220.463 235.973 221.606 234.745 222.809 233.602C224.052 232.473 225.257 231.528 226.424 230.768C227.263 230.208 228.128 229.7 229.021 229.245C229.913 228.79 230.832 228.322 231.777 227.84C232.761 227.371 233.752 226.882 234.75 226.374C235.747 225.865 236.751 225.271 237.76 224.591C238.376 224.178 239.137 223.79 240.044 223.427C240.99 223.077 241.942 222.707 242.901 222.317C243.137 222.263 243.375 222.274 243.613 222.351C243.85 222.429 244.094 222.42 244.344 222.326C244.83 222.177 245.263 221.989 245.644 221.762C246.024 221.535 246.358 221.315 246.647 221.102C246.935 220.889 247.204 220.735 247.453 220.641C247.716 220.507 247.966 220.479 248.204 220.556C248.402 220.621 248.574 220.698 248.719 220.789C248.905 220.893 249.096 220.978 249.295 221.042C249.532 221.119 249.73 221.118 249.887 221.037C250.058 220.917 250.228 220.797 250.399 220.677C250.582 220.518 250.772 220.404 250.969 220.337C251.219 220.243 251.522 220.254 251.878 220.369C252.593 220.733 253.064 221.105 253.291 221.485C253.57 221.839 253.705 222.233 253.695 222.668C253.685 223.103 253.63 223.61 253.529 224.191C253.428 224.771 253.381 225.457 253.387 226.248L253.275 229.628C253.254 230.234 253.258 230.827 253.289 231.407C253.32 231.986 253.285 232.501 253.183 232.949C253.067 233.306 252.904 233.538 252.694 233.645C252.497 233.712 252.347 233.905 252.244 234.222C252.18 234.42 252.175 234.703 252.231 235.072C252.299 235.401 252.269 235.763 252.141 236.159ZM240.543 241.725C240.749 241.091 240.914 240.378 241.04 239.587C241.205 238.808 241.383 237.99 241.574 237.132C241.829 236.076 242.124 234.966 242.457 233.804C242.83 232.655 243.138 231.572 243.38 230.556C243.623 229.539 243.768 228.688 243.815 228.003C243.902 227.33 243.787 226.942 243.47 226.839C243.034 226.698 242.283 226.717 241.217 226.896C240.191 227.089 239.185 227.354 238.199 227.691C237.937 227.825 237.629 228.097 237.277 228.508C236.937 228.88 236.564 229.219 236.158 229.525C234.73 230.551 233.492 231.529 232.446 232.46C231.438 233.403 230.524 234.398 229.702 235.446C228.88 236.493 228.092 237.639 227.337 238.884C226.596 240.089 225.796 241.472 224.939 243.033C224.289 244.224 223.698 245.237 223.164 246.071C222.63 246.906 222.17 247.917 221.784 249.106C220.652 252.594 220.134 255.404 220.23 257.538C220.365 259.685 220.948 260.925 221.978 261.26C222.613 261.466 223.126 261.435 223.519 261.169C223.965 260.875 224.319 260.662 224.582 260.528C224.818 260.474 225.056 260.485 225.294 260.562C225.571 260.652 225.834 260.65 226.084 260.556C227.161 260.073 228.084 259.387 228.855 258.498C229.625 257.609 230.356 256.708 231.047 255.793L231.404 255.909C231.523 255.948 231.595 255.927 231.621 255.848C231.647 255.769 231.659 255.663 231.658 255.531C231.709 255.373 231.748 255.254 231.774 255.175C231.864 254.897 232.02 254.619 232.242 254.341C232.503 254.075 232.778 253.836 233.066 253.623C233.354 253.41 233.636 253.217 233.911 253.043C234.2 252.83 234.409 252.657 234.54 252.524C235.115 251.966 235.552 251.429 235.851 250.913C236.203 250.37 236.489 249.828 236.708 249.286C236.981 248.717 237.207 248.155 237.387 247.6C237.619 247.019 237.898 246.43 238.223 245.835C238.638 244.962 239.06 244.201 239.49 243.552C239.919 242.903 240.27 242.294 240.543 241.725ZM272.541 266.833C272.295 267.322 272.028 267.805 271.742 268.282C271.496 268.771 271.13 269.222 270.646 269.634C270.332 269.927 269.932 270.147 269.445 270.296C268.972 270.405 268.585 270.586 268.284 270.839C267.943 271.079 267.603 271.384 267.263 271.756C266.936 272.088 266.602 272.374 266.262 272.614C265.698 273 265.082 273.348 264.412 273.656C263.795 273.938 263.179 274.351 262.564 274.896C261.831 275.534 261.058 276.094 260.245 276.574C259.471 277.068 258.395 277.682 257.018 278.418C256.585 278.672 256.186 279.024 255.82 279.475C255.455 279.926 255.154 280.179 254.917 280.233C254.667 280.327 254.344 280.31 253.948 280.181C253.579 280.105 253.282 280.075 253.058 280.09C253.058 280.09 252.94 280.117 252.703 280.171C252.506 280.239 252.269 280.293 251.993 280.335C251.743 280.429 251.467 280.471 251.164 280.46C250.887 280.502 250.65 280.491 250.452 280.426C249.619 280.156 249.056 279.732 248.762 279.155C248.467 278.577 248.356 277.84 248.428 276.944C248.54 276.06 248.775 274.997 249.134 273.756C249.533 272.527 249.99 271.121 250.505 269.535C250.749 268.782 250.975 268.155 251.182 267.652C251.441 267.123 251.681 266.654 251.902 266.243C252.175 265.806 252.422 265.383 252.643 264.973C252.904 264.575 253.183 264.119 253.482 263.602C254.132 262.411 254.689 261.168 255.153 259.873C255.657 258.591 256.265 257.256 256.979 255.867C257.239 255.338 257.564 254.808 257.955 254.278C258.386 253.761 258.744 253.198 259.029 252.589C260.065 250.341 260.983 247.989 261.78 245.532C262.618 243.087 263.58 240.662 264.668 238.255C265.212 236.986 265.821 235.716 266.496 234.446C267.224 233.149 267.919 231.885 268.581 230.655C269.452 229.053 270.321 227.32 271.189 225.456C272.11 223.564 273.017 221.647 273.911 219.703C274.845 217.772 275.758 215.834 276.652 213.89C277.559 211.906 278.44 210.002 279.296 208.177C279.594 207.529 279.971 206.907 280.427 206.31C280.936 205.687 281.3 205.038 281.519 204.365C281.789 203.533 281.723 202.723 281.322 201.935C280.649 201.848 280.11 202.024 279.705 202.462C279.353 202.873 278.914 203.212 278.389 203.48C277.654 203.855 276.985 204.163 276.38 204.405C275.776 204.647 275.081 205.035 274.294 205.568C274.072 205.714 273.829 205.921 273.568 206.186C273.307 206.452 273.005 206.704 272.665 206.944C272.376 207.157 272.042 207.312 271.66 207.407C271.279 207.502 270.85 207.472 270.375 207.318C269.979 207.189 269.773 207.013 269.758 206.789C269.756 206.526 269.794 206.275 269.871 206.037C269.987 205.681 270.195 205.376 270.496 205.123C270.85 204.844 271.217 204.59 271.597 204.363C272.03 204.11 272.476 203.882 272.936 203.681C273.395 203.48 273.795 203.259 274.136 203.019C275.015 202.472 275.86 201.892 276.672 201.28C277.537 200.641 278.356 200.14 279.131 199.778C279.708 199.484 280.398 199.248 281.201 199.07C282.003 198.893 282.792 198.623 283.566 198.261C284.288 197.926 284.93 197.434 285.492 196.783C286.093 196.146 286.709 195.733 287.34 195.544C287.537 195.476 287.754 195.481 287.992 195.558C288.282 195.609 288.553 195.653 288.803 195.69C289.107 195.701 289.396 195.686 289.673 195.644C289.962 195.563 290.218 195.383 290.439 195.104C291.034 195.297 291.498 195.623 291.831 196.082C292.176 196.5 292.424 196.953 292.572 197.44C292.774 197.899 292.902 198.313 292.958 198.682C293.013 199.05 293.035 199.254 293.022 199.294C292.88 199.73 292.581 200.18 292.123 200.645C291.718 201.083 291.373 201.606 291.088 202.214C290.803 202.823 290.525 203.477 290.254 204.178C289.995 204.839 289.685 205.592 289.323 206.438C289 207.297 288.579 208.256 288.06 209.314C287.554 210.333 286.931 211.51 286.191 212.847C285.788 213.548 285.298 214.178 284.723 214.736C284.187 215.307 283.79 215.857 283.53 216.386C282.739 218.013 282.022 219.817 281.379 221.798C280.748 223.74 279.965 225.545 279.03 227.213C278.718 227.769 278.359 228.265 277.954 228.703C277.562 229.102 277.276 229.578 277.096 230.133C277.044 230.292 276.974 230.51 276.884 230.787C276.846 231.038 276.795 231.262 276.731 231.46C276.641 231.738 276.497 231.91 276.3 231.978C276.155 232.018 276.07 232.078 276.044 232.158C276.006 232.276 276.027 232.415 276.107 232.572C276.2 232.69 276.195 232.907 276.092 233.224C275.796 234.136 275.302 234.983 274.61 235.766C273.931 236.509 273.403 237.258 273.027 238.012C272.106 239.903 271.311 241.879 270.642 243.94C270.013 246.014 269.231 247.95 268.296 249.75C268.075 250.16 267.775 250.544 267.396 250.903C267.017 251.262 266.736 251.653 266.555 252.076C266.077 253.279 265.567 254.58 265.024 255.981C264.522 257.395 264.025 258.723 263.534 259.966C263.145 260.76 262.684 261.639 262.151 262.605C261.619 263.571 261.073 264.577 260.515 265.623C260.009 266.641 259.503 267.66 258.997 268.678C258.531 269.71 258.15 270.681 257.854 271.593C257.648 272.227 257.533 272.715 257.509 273.058C257.486 273.401 257.508 273.671 257.575 273.868C257.695 274.038 257.808 274.162 257.914 274.241C258.072 274.292 258.211 274.337 258.33 274.376C258.607 274.466 258.897 274.45 259.199 274.329C259.501 274.208 259.797 274.041 260.085 273.828C260.413 273.628 260.701 273.415 260.949 273.189C261.25 272.936 261.532 272.743 261.795 272.609C263.528 271.858 264.893 271.096 265.888 270.324C266.896 269.512 267.74 268.801 268.421 268.189C269.101 267.578 269.71 267.118 270.248 266.811C270.786 266.504 271.471 266.485 272.303 266.756L272.541 266.833ZM297.984 275.093C297.737 275.582 297.471 276.065 297.185 276.542C296.938 277.031 296.573 277.482 296.089 277.894C295.775 278.187 295.375 278.407 294.888 278.556C294.415 278.665 294.027 278.846 293.726 279.099C293.386 279.339 293.045 279.644 292.706 280.016C292.379 280.348 292.045 280.634 291.704 280.874C291.141 281.26 290.524 281.608 289.855 281.916C289.238 282.198 288.622 282.611 288.007 283.156C287.274 283.794 286.501 284.354 285.687 284.834C284.914 285.328 283.838 285.942 282.46 286.678C282.028 286.932 281.628 287.284 281.263 287.735C280.898 288.186 280.597 288.438 280.36 288.493C280.11 288.587 279.787 288.57 279.391 288.441C279.021 288.365 278.725 288.335 278.501 288.349C278.501 288.349 278.382 288.377 278.146 288.431C277.949 288.499 277.712 288.553 277.435 288.595C277.186 288.689 276.909 288.731 276.606 288.72C276.33 288.762 276.093 288.75 275.894 288.686C275.062 288.416 274.499 287.992 274.205 287.415C273.91 286.837 273.799 286.1 273.871 285.204C273.983 284.32 274.218 283.257 274.577 282.016C274.976 280.787 275.433 279.381 275.947 277.795C276.192 277.042 276.418 276.415 276.625 275.912C276.884 275.383 277.124 274.914 277.345 274.503C277.618 274.066 277.865 273.643 278.086 273.233C278.346 272.835 278.626 272.379 278.925 271.862C279.575 270.671 280.131 269.428 280.596 268.133C281.099 266.851 281.708 265.516 282.422 264.127C282.681 263.597 283.007 263.068 283.398 262.538C283.829 262.02 284.187 261.458 284.472 260.849C285.508 258.601 286.425 256.249 287.223 253.791C288.06 251.347 289.023 248.922 290.111 246.515C290.654 245.246 291.264 243.976 291.939 242.706C292.667 241.409 293.362 240.145 294.024 238.915C294.894 237.313 295.764 235.58 296.632 233.716C297.553 231.824 298.46 229.907 299.354 227.963C300.287 226.031 301.201 224.094 302.095 222.15C303.002 220.166 303.883 218.262 304.738 216.437C305.036 215.789 305.414 215.167 305.87 214.57C306.379 213.947 306.743 213.298 306.962 212.625C307.232 211.793 307.166 210.983 306.765 210.195C306.092 210.108 305.553 210.284 305.148 210.722C304.796 211.133 304.357 211.472 303.832 211.74C303.097 212.115 302.427 212.423 301.823 212.665C301.219 212.907 300.524 213.294 299.737 213.828C299.514 213.974 299.272 214.181 299.011 214.446C298.749 214.712 298.448 214.964 298.108 215.204C297.819 215.417 297.484 215.572 297.103 215.667C296.722 215.762 296.293 215.732 295.818 215.578C295.421 215.449 295.216 215.273 295.201 215.049C295.199 214.786 295.236 214.535 295.314 214.297C295.429 213.941 295.638 213.636 295.939 213.383C296.292 213.104 296.659 212.85 297.04 212.623C297.473 212.37 297.919 212.142 298.378 211.941C298.838 211.74 299.238 211.519 299.579 211.279C300.457 210.732 301.303 210.152 302.115 209.54C302.98 208.901 303.799 208.4 304.574 208.038C305.151 207.744 305.841 207.508 306.644 207.33C307.446 207.153 308.234 206.883 309.009 206.521C309.731 206.186 310.373 205.693 310.934 205.043C311.535 204.406 312.152 203.993 312.782 203.804C312.98 203.736 313.197 203.741 313.435 203.818C313.725 203.869 313.996 203.913 314.246 203.95C314.549 203.961 314.839 203.946 315.116 203.904C315.405 203.823 315.66 203.643 315.882 203.364C316.477 203.557 316.94 203.883 317.273 204.342C317.619 204.76 317.867 205.213 318.015 205.699C318.217 206.159 318.345 206.573 318.401 206.942C318.456 207.31 318.477 207.514 318.465 207.554C318.323 207.99 318.024 208.44 317.566 208.905C317.161 209.343 316.816 209.866 316.531 210.474C316.246 211.083 315.968 211.737 315.696 212.438C315.438 213.099 315.128 213.852 314.765 214.698C314.443 215.557 314.022 216.516 313.503 217.574C312.997 218.593 312.374 219.77 311.633 221.107C311.23 221.808 310.741 222.438 310.166 222.996C309.63 223.567 309.232 224.117 308.973 224.646C308.182 226.273 307.465 228.077 306.822 230.058C306.191 232 305.408 233.805 304.472 235.473C304.161 236.029 303.802 236.525 303.397 236.963C303.005 237.362 302.719 237.838 302.539 238.393C302.487 238.552 302.416 238.77 302.326 239.047C302.289 239.298 302.238 239.522 302.174 239.72C302.083 239.998 301.94 240.17 301.743 240.238C301.598 240.278 301.513 240.338 301.487 240.417C301.449 240.536 301.469 240.675 301.55 240.832C301.643 240.95 301.638 241.167 301.535 241.484C301.239 242.396 300.745 243.243 300.053 244.026C299.374 244.769 298.846 245.518 298.47 246.272C297.549 248.163 296.754 250.139 296.085 252.2C295.456 254.274 294.674 256.21 293.739 258.01C293.518 258.42 293.218 258.804 292.839 259.163C292.459 259.522 292.179 259.913 291.998 260.336C291.52 261.539 291.01 262.84 290.467 264.241C289.964 265.655 289.468 266.983 288.977 268.226C288.588 269.019 288.127 269.899 287.594 270.865C287.061 271.831 286.516 272.837 285.957 273.882C285.451 274.901 284.946 275.92 284.44 276.938C283.973 277.97 283.592 278.941 283.296 279.853C283.091 280.487 282.976 280.975 282.952 281.318C282.928 281.661 282.95 281.931 283.018 282.128C283.138 282.298 283.251 282.422 283.357 282.501C283.515 282.552 283.654 282.597 283.773 282.636C284.05 282.726 284.34 282.71 284.642 282.589C284.944 282.468 285.239 282.301 285.528 282.088C285.855 281.888 286.144 281.675 286.392 281.449C286.693 281.196 286.975 281.003 287.238 280.869C288.971 280.118 290.335 279.356 291.331 278.584C292.339 277.772 293.183 277.061 293.864 276.449C294.544 275.838 295.153 275.378 295.691 275.071C296.229 274.764 296.914 274.745 297.746 275.016L297.984 275.093ZM401.767 322.782C401.97 323.374 402.032 323.788 401.955 324.026C401.839 324.383 401.544 324.55 401.069 324.527C400.608 324.465 400.034 324.344 399.347 324.165C398.673 323.946 397.94 323.708 397.148 323.451C396.355 323.194 395.576 323.028 394.811 322.955C393.836 322.858 392.94 322.851 392.123 322.937C391.307 323.022 390.53 323.121 389.793 323.232C389.043 323.383 388.352 323.487 387.72 323.545C387.088 323.602 386.515 323.547 386 323.38C385.524 323.226 385.107 322.959 384.748 322.58C384.389 322.2 384.012 321.946 383.616 321.818C383.021 321.625 382.368 321.478 381.655 321.378C380.983 321.292 380.323 321.231 379.678 321.196C379.071 321.175 378.511 321.146 377.997 321.111C377.47 321.115 377.081 321.098 376.83 321.061C376.275 320.88 375.858 320.614 375.579 320.26C375.339 319.919 375.29 319.531 375.431 319.095C375.74 318.144 376.316 317.586 377.158 317.421C378.039 317.269 379.134 317.406 380.442 317.83C380.64 317.895 380.871 317.992 381.136 318.121C381.4 318.251 381.671 318.361 381.949 318.451C382.622 318.67 383.28 318.533 383.922 318.04C384.577 317.508 385.19 316.765 385.762 315.812C386.387 314.832 386.958 313.681 387.475 312.36C388.044 311.011 388.573 309.65 389.063 308.276C389.553 306.901 390.011 305.56 390.435 304.253C390.899 302.958 391.312 301.821 391.673 300.843C393.042 297.301 394.41 293.628 395.777 289.822C397.144 286.016 398.374 282.429 399.468 279.061C400.381 276.247 401.107 273.81 401.644 271.75C401.025 271.768 400.439 271.885 399.888 272.1C399.336 272.315 398.811 272.583 398.313 272.903C397.815 273.223 397.323 273.59 396.839 274.002C396.407 274.387 396.002 274.759 395.622 275.118C395.57 275.145 395.531 275.198 395.505 275.277C395.479 275.356 395.447 275.456 395.409 275.574C395.41 275.706 395.397 275.812 395.372 275.891C395.359 275.931 395.228 276.063 394.979 276.289C394.731 276.515 394.43 276.768 394.076 277.047C393.735 277.287 393.368 277.541 392.975 277.807C392.622 278.087 392.34 278.28 392.13 278.387C391.435 278.775 390.432 279.5 389.123 280.565C387.866 281.602 386.407 282.859 384.745 284.335C383.123 285.823 381.383 287.471 379.526 289.277C377.709 291.097 375.879 292.956 374.036 294.854C372.232 296.766 370.501 298.657 368.843 300.528C367.223 302.412 365.801 304.162 364.575 305.78C363.988 306.509 363.48 307.264 363.051 308.045C362.622 308.825 362.153 309.527 361.644 310.151C361.188 310.747 360.671 311.193 360.094 311.487C359.569 311.755 358.91 311.76 358.117 311.503C357.8 311.4 357.562 311.257 357.402 311.073C357.256 310.851 357.143 310.726 357.063 310.701C356.575 310.586 356.127 310.55 355.718 310.593C355.35 310.648 355.027 310.631 354.75 310.541C354.432 310.306 354.166 310.045 353.953 309.756C353.767 309.521 353.613 309.252 353.492 308.95C353.423 308.621 353.441 308.298 353.544 307.981C353.569 307.902 353.595 307.822 353.621 307.743C353.699 307.637 353.751 307.544 353.777 307.465C353.79 307.425 353.783 307.379 353.756 307.327C353.769 307.287 353.782 307.248 353.795 307.208C353.668 306.247 353.549 305.266 353.435 304.266C353.375 303.239 353.385 302.059 353.467 300.728L353.699 300.014C353.814 299.658 353.869 299.018 353.861 298.096C353.907 297.147 353.805 295.909 353.556 294.383C353.576 293.644 353.683 292.912 353.874 292.186C354.066 291.46 354.094 290.768 353.957 290.11C353.916 289.966 353.843 289.854 353.737 289.776C353.631 289.698 353.629 289.5 353.732 289.183C353.758 289.104 353.79 289.005 353.829 288.886C353.907 288.78 353.959 288.687 353.985 288.608C354.019 287.962 354.006 287.125 353.945 286.098C353.897 285.031 353.837 284.004 353.763 283.016C353.702 281.989 353.636 281.113 353.565 280.389C353.533 279.678 353.523 279.302 353.536 279.263C353.6 279.064 353.678 278.893 353.769 278.747C353.873 278.562 353.951 278.39 354.002 278.231C354.079 277.993 354.011 277.664 353.797 277.245C353.622 276.837 353.541 276.482 353.551 276.179C353.493 275.415 353.513 274.611 353.612 273.767C353.75 272.936 353.815 271.994 353.807 270.939C353.817 270.505 353.799 269.951 353.754 269.28C353.762 268.581 353.763 267.837 353.757 267.046C353.75 266.256 353.737 265.419 353.717 264.536C353.737 263.667 353.743 262.836 353.737 262.046C353.722 261.822 353.746 261.545 353.81 261.215C353.886 260.846 353.916 260.483 353.9 260.127C353.886 260.035 353.838 259.845 353.757 259.555C353.689 259.226 353.62 258.898 353.552 258.569C353.496 258.2 353.447 257.878 353.406 257.601C353.364 257.325 353.356 257.147 353.382 257.068L353.401 257.008C352.979 256.959 352.508 257.332 351.987 258.126C351.506 258.934 351.006 259.867 350.487 260.925C350.008 261.996 349.535 263.047 349.069 264.079C348.655 265.083 348.304 265.758 348.017 266.103C347.652 266.554 347.334 267.195 347.064 268.028C346.846 268.833 346.504 269.751 346.038 270.783C345.727 271.471 345.336 272.067 344.866 272.571C344.396 273.075 344.051 273.664 343.832 274.338C343.729 274.655 343.627 274.972 343.524 275.289C343.473 275.58 343.397 275.883 343.294 276.2C342.998 277.112 342.576 277.939 342.028 278.681C341.52 279.436 340.988 280.468 340.432 281.777C340.406 281.856 340.374 281.955 340.335 282.074C340.336 282.206 340.324 282.311 340.298 282.39C340.234 282.588 340.117 282.748 339.946 282.867C339.789 282.948 339.67 282.975 339.591 282.949C338.994 284.114 338.45 285.251 337.958 286.362C337.505 287.485 336.987 288.609 336.403 289.734C335.883 290.66 335.33 291.554 334.744 292.415C334.21 293.249 333.697 294.156 333.204 295.135C332.711 296.114 332.277 297.112 331.903 298.13C331.568 299.16 331.175 300.171 330.721 301.163C331.725 301.445 332.787 301.615 333.907 301.672C335.08 301.702 336.162 301.878 337.153 302.2C338.262 302.56 339.091 303.179 339.638 304.058C339.365 304.495 339.13 304.813 338.934 305.012C338.751 305.172 338.541 305.279 338.304 305.333C338.08 305.348 337.81 305.304 337.493 305.201C337.202 305.151 336.833 305.075 336.384 304.973C336.054 304.909 335.83 304.924 335.712 305.017C335.634 305.124 335.509 305.171 335.338 305.159C334.613 305.099 333.887 304.972 333.161 304.781C332.461 304.641 331.768 304.482 331.082 304.303C330.382 304.163 329.676 304.044 328.964 303.944C328.291 303.857 327.619 303.836 326.948 303.881C326.671 303.922 326.282 303.905 325.781 303.83C325.319 303.768 324.805 303.667 324.237 303.526C323.656 303.425 323.063 303.298 322.455 303.145C321.875 303.044 321.354 302.962 320.892 302.9C320.311 302.799 319.566 302.733 318.657 302.7C317.747 302.668 316.936 302.536 316.223 302.304C315.668 302.124 315.251 301.857 314.971 301.504C314.731 301.163 314.721 300.656 314.94 299.982C315.145 299.348 315.505 298.983 316.018 298.887C316.518 298.83 317.078 298.859 317.699 298.972C318.346 299.138 318.993 299.305 319.64 299.471C320.313 299.69 320.913 299.731 321.439 299.595C322.005 299.472 322.51 299.264 322.956 298.971C323.441 298.69 323.848 298.384 324.174 298.052C324.501 297.72 324.769 297.434 324.978 297.196C325.2 296.917 325.324 296.738 325.349 296.659C325.414 296.461 325.452 296.276 325.464 296.105C325.515 295.946 325.573 295.768 325.637 295.57C325.702 295.372 325.766 295.239 325.832 295.173C326.679 294.046 327.528 292.986 328.376 291.991C329.277 290.969 330.118 289.796 330.898 288.473C330.951 288.446 330.996 288.373 331.035 288.254C331.074 288.135 331.092 288.01 331.091 287.878C331.13 287.759 331.162 287.66 331.188 287.581C331.423 287.263 331.703 286.872 332.029 286.408C332.407 285.918 332.792 285.407 333.183 284.877C333.613 284.36 334.031 283.816 334.435 283.247C334.878 282.69 335.27 282.16 335.608 281.656L335.685 281.418C335.737 281.26 335.762 281.115 335.761 280.983C335.8 280.864 335.838 280.745 335.877 280.626C335.928 280.468 336.144 280.275 336.525 280.048C336.918 279.782 337.244 279.384 337.504 278.855C338.01 277.968 338.386 277.082 338.629 276.197C338.912 275.325 339.248 274.493 339.637 273.699C340.13 272.72 340.65 271.794 341.197 270.92C341.743 270.046 342.283 269.192 342.817 268.357C343.351 267.523 343.838 266.696 344.28 265.875C344.774 265.028 345.189 264.155 345.524 263.257C345.796 262.556 346.133 261.855 346.536 261.154C346.939 260.452 347.361 259.757 347.804 259.068C348.299 258.353 348.755 257.625 349.17 256.883C349.626 256.155 350.009 255.381 350.318 254.562C350.615 253.782 350.999 253.074 351.468 252.438C351.95 251.762 352.347 251.081 352.658 250.393C353.072 249.52 353.441 248.588 353.762 247.598C354.136 246.58 354.531 245.635 354.946 244.762C355.166 244.352 355.492 243.888 355.923 243.371C356.406 242.827 356.712 242.356 356.841 241.96C356.892 241.802 356.858 241.571 356.737 241.269C356.655 240.98 356.666 240.677 356.769 240.36C356.795 240.281 357.011 240.154 357.418 239.979C357.838 239.765 358.37 239.543 359.014 239.314C359.671 239.046 360.393 238.777 361.182 238.507C361.97 238.237 362.772 237.994 363.587 237.776C363.64 237.75 363.765 237.768 363.963 237.833C364.201 237.91 364.459 237.994 364.736 238.084C365.093 238.199 365.364 238.309 365.549 238.413C365.747 238.478 365.84 238.596 365.829 238.767C365.869 238.912 365.845 239.123 365.755 239.4C365.664 239.677 365.542 240.054 365.388 240.529C365.246 240.965 365.079 241.415 364.885 241.877C364.743 242.313 364.595 242.769 364.441 243.245C364.261 243.799 364.132 244.262 364.056 244.631C363.993 244.961 363.93 245.291 363.866 245.621C363.856 245.924 363.845 246.227 363.834 246.53C363.863 246.846 363.872 247.222 363.863 247.657C363.853 248.092 363.797 248.599 363.697 249.18C363.609 249.721 363.607 250.334 363.691 251.018C363.719 251.202 363.794 251.511 363.916 251.945C364.051 252.34 364.125 252.583 364.139 252.675C364.133 253.637 363.983 254.573 363.687 255.485C363.404 256.357 363.279 257.28 363.313 258.255C363.341 258.439 363.442 258.669 363.615 258.944C363.828 259.233 363.915 259.436 363.877 259.555C363.851 259.634 363.799 259.727 363.721 259.833C363.682 259.952 363.65 260.051 363.624 260.13C363.586 260.249 363.586 260.315 363.626 260.328C363.826 260.656 363.935 261.129 363.953 261.748C363.971 262.368 363.944 263.059 363.871 263.824C363.81 264.549 363.718 265.308 363.592 266.099C363.519 266.864 363.491 267.556 363.509 268.175C363.513 268.571 363.535 268.972 363.578 269.381C363.673 269.762 363.729 270.196 363.746 270.684C363.723 271.026 363.66 271.422 363.558 271.871C363.469 272.28 363.433 272.663 363.449 273.018C363.469 273.901 363.582 274.967 363.79 276.217C364.037 277.481 364.139 278.784 364.097 280.129L363.866 280.842C363.776 281.119 363.779 281.58 363.876 282.225C364.026 282.843 364.156 283.455 364.266 284.06C364.274 284.983 364.183 286.005 363.994 287.126C363.818 288.208 363.714 289.269 363.683 290.311C363.724 290.455 363.831 290.665 364.004 290.941C364.23 291.189 364.35 291.36 364.364 291.452C364.326 291.702 364.243 292.026 364.114 292.422C364.025 292.831 363.936 293.24 363.847 293.65C363.798 294.072 363.808 294.447 363.876 294.776C363.984 295.118 364.236 295.353 364.633 295.482C364.989 295.597 365.443 295.482 365.994 295.135C366.597 294.761 367.212 294.282 367.84 293.697C368.508 293.126 369.162 292.528 369.803 291.903C370.483 291.292 371.065 290.78 371.55 290.368C371.615 290.301 371.903 290.088 372.414 289.728C372.938 289.329 373.528 288.863 374.182 288.331C374.326 288.159 374.456 287.96 374.573 287.735C374.703 287.47 374.859 287.258 375.042 287.099C375.147 287.045 375.305 287.031 375.516 287.056C375.78 287.053 375.964 287.026 376.069 286.972C376.292 286.825 376.422 286.627 376.46 286.376C376.55 286.099 376.72 285.913 376.969 285.819C377.087 285.726 377.251 285.691 377.463 285.716C377.713 285.754 377.897 285.726 378.015 285.633C378.238 285.486 378.368 285.287 378.406 285.037C378.456 284.746 378.613 284.534 378.875 284.401C378.98 284.347 379.158 284.339 379.409 284.377C379.672 284.374 379.837 284.34 379.902 284.274C380.399 283.822 380.823 283.259 381.174 282.584C381.537 281.87 382 281.253 382.562 280.735C382.628 280.668 382.786 280.654 383.036 280.692C383.3 280.69 383.464 280.655 383.53 280.589C383.856 280.257 384.072 279.998 384.176 279.813C384.28 279.628 384.561 279.369 385.02 279.036C385.426 278.729 385.859 278.476 386.318 278.274C386.791 278.033 387.19 277.747 387.517 277.415C387.805 277.202 387.975 276.95 388.025 276.66C388.088 276.33 388.271 276.039 388.572 275.786C388.833 275.521 389.226 275.254 389.751 274.986C390.289 274.679 390.76 274.24 391.164 273.671C391.528 273.088 392.189 272.536 393.147 272.015C394.118 271.454 394.963 270.874 395.683 270.275C396.403 269.677 397.005 269.171 397.49 268.759C397.987 268.307 398.425 267.902 398.804 267.543C399.223 267.197 399.642 266.851 400.061 266.505C400.533 266.133 401.096 265.746 401.752 265.346C402.093 265.106 402.519 264.872 403.031 264.644C403.556 264.376 404.152 263.957 404.82 263.385C404.951 263.252 405.081 263.053 405.211 262.789C405.34 262.524 405.49 262.332 405.661 262.212C405.988 262.012 406.376 261.897 406.824 261.867C407.272 261.837 407.646 261.696 407.947 261.443C408.654 260.884 409.275 260.253 409.81 259.551C410.358 258.809 410.939 258.165 411.554 257.62C412.182 257.035 412.864 256.621 413.6 256.379C414.336 256.136 415.279 256.201 416.428 256.574C417.379 256.883 417.943 257.372 418.119 258.043C418.309 258.674 418.275 259.386 418.017 260.178C417.799 260.852 417.481 261.559 417.066 262.301C416.65 263.042 416.214 263.776 415.759 264.505C415.29 265.273 414.823 266.172 414.357 267.204C413.93 268.248 413.478 269.372 413 270.574C412.574 271.75 412.136 272.966 411.684 274.221C411.272 275.49 410.841 276.751 410.39 278.007C409.59 280.2 408.618 282.316 407.475 284.354C406.371 286.405 405.471 288.501 404.777 290.641C404.609 291.156 404.442 291.671 404.275 292.186C404.147 292.715 404 293.236 403.832 293.751C403.575 294.544 403.277 295.192 402.939 295.695C402.613 296.159 402.341 296.728 402.122 297.401C401.942 297.956 401.821 298.596 401.761 299.321C401.701 300.047 401.594 300.647 401.439 301.123C401.126 301.547 400.762 302.129 400.346 302.87C399.943 303.572 399.515 304.353 399.06 305.213C398.645 306.086 398.231 307.025 397.817 308.029C397.416 308.994 397.055 309.972 396.733 310.963C396.605 311.359 396.516 311.834 396.468 312.388C396.472 312.915 396.423 313.337 396.32 313.654C396.114 314.288 395.835 314.877 395.484 315.42C395.145 315.923 394.886 316.452 394.705 317.007C394.551 317.483 394.489 317.944 394.519 318.392C394.549 318.84 394.611 319.254 394.706 319.636C394.854 319.99 395.021 320.286 395.207 320.521C395.394 320.757 395.566 320.901 395.725 320.952C396.081 321.068 396.51 321.163 397.012 321.238C397.526 321.274 398.04 321.309 398.554 321.345C399.081 321.341 399.536 321.357 399.918 321.393C400.314 321.39 400.571 321.408 400.69 321.447C400.914 321.564 401.114 321.76 401.287 322.035C401.513 322.284 401.673 322.533 401.767 322.782ZM453.76 296.424C453.191 297.904 452.53 299.2 451.774 300.313C451.058 301.439 450.275 302.433 449.426 303.296C448.616 304.172 447.772 304.95 446.894 305.629C446.017 306.307 445.126 306.96 444.222 307.586C443.658 307.973 443.193 308.326 442.827 308.645C442.473 308.924 442.132 309.164 441.805 309.364C441.477 309.565 441.142 309.719 440.8 309.827C440.458 309.935 440.03 309.971 439.516 309.936C439.173 309.912 438.765 309.889 438.29 309.866C437.868 309.817 437.447 309.899 437.027 310.113C436.922 310.167 436.792 310.3 436.635 310.512C436.492 310.684 436.367 310.797 436.262 310.851C435.868 310.986 435.44 311.022 434.978 310.96C434.569 310.871 434.168 310.893 433.773 311.028C433.366 311.203 433.071 311.37 432.888 311.529C432.705 311.689 432.422 311.816 432.041 311.912C431.66 312.007 431.232 312.043 430.757 312.02C430.335 311.971 429.913 311.988 429.492 312.07C429.151 312.178 428.856 312.345 428.607 312.571C428.411 312.77 428.122 312.917 427.741 313.013C426.965 313.243 426.321 313.406 425.808 313.502C425.307 313.559 424.854 313.74 424.448 314.046C424.082 314.366 423.717 314.882 423.353 315.597C422.99 316.311 422.558 317.441 422.056 318.987C421.76 319.898 421.497 320.776 421.266 321.621C421.075 322.479 420.955 323.119 420.906 323.542C420.907 323.673 420.935 323.989 420.992 324.49C421.101 324.963 421.237 325.489 421.4 326.068C421.602 326.659 421.857 327.223 422.164 327.761C422.484 328.26 422.882 328.586 423.358 328.74C424.071 328.972 424.789 328.92 425.511 328.585C426.246 328.21 427.014 327.934 427.817 327.757C428.435 327.607 429.244 327.409 430.243 327.164C431.256 326.88 432.129 326.484 432.863 325.978C433.098 325.791 433.399 325.539 433.766 325.22C434.145 324.861 434.538 324.528 434.944 324.222C435.403 323.889 435.855 323.642 436.302 323.48C436.801 323.292 437.289 323.275 437.764 323.429C437.962 323.493 438.201 323.637 438.479 323.858C438.221 324.519 437.803 325.063 437.227 325.489C436.69 325.928 436.107 326.308 435.477 326.629C434.899 326.924 434.374 327.191 433.902 327.432C433.429 327.673 433.155 327.912 433.077 328.15C433.052 328.229 433.013 328.348 432.962 328.507C432.963 328.639 432.95 328.744 432.924 328.823C432.86 329.022 432.571 329.103 432.057 329.067C431.595 329.005 431.187 329.048 430.832 329.196C430.57 329.329 430.334 329.516 430.125 329.754C429.969 329.967 429.766 330.12 429.516 330.214C428.964 330.429 428.406 330.598 427.84 330.721C427.274 330.844 426.742 331 426.243 331.188C425.678 331.443 425.074 331.751 424.432 332.112C423.828 332.485 423.238 332.819 422.661 333.114C422.07 333.448 421.506 333.703 420.967 333.878C420.468 334.066 420.04 334.103 419.683 333.987C419.485 333.923 419.28 333.812 419.068 333.656C418.882 333.552 418.691 333.468 418.493 333.403C418.294 333.339 418.11 333.367 417.94 333.487C417.769 333.607 417.585 333.634 417.387 333.57C417.03 333.454 416.672 333.141 416.312 332.63C415.94 332.158 415.621 331.792 415.355 331.53C414.864 331.152 414.256 330.801 413.528 330.477C412.788 330.193 412.298 329.881 412.058 329.54C411.858 329.212 411.782 328.706 411.829 328.02C411.916 327.348 411.898 326.662 411.773 325.965C411.637 325.307 411.428 324.736 411.147 324.25C410.867 323.765 410.719 323.411 410.704 323.187C410.702 322.923 410.746 322.587 410.835 322.178C410.976 321.742 411.118 321.306 411.259 320.87C411.414 320.394 411.542 319.932 411.644 319.483C411.758 318.995 411.814 318.553 411.811 318.158C411.81 318.026 411.763 317.901 411.67 317.783C411.59 317.626 411.601 317.389 411.704 317.071C411.691 317.111 411.776 317.051 411.959 316.892C412.195 316.705 412.339 316.533 412.39 316.374C413.605 313.308 414.847 310.426 416.117 307.728C417.44 305.003 418.778 302.568 420.131 300.423C421.498 298.238 422.88 296.409 424.279 294.935C425.729 293.435 427.217 292.362 428.74 291.718C428.99 291.624 429.227 291.635 429.452 291.752C429.729 291.842 429.993 291.84 430.242 291.746C430.347 291.692 430.452 291.573 430.556 291.388C430.712 291.175 430.843 291.043 430.948 290.989C431.198 290.895 431.441 290.886 431.679 290.964C431.956 291.054 432.2 291.045 432.41 290.938C432.555 290.898 432.765 290.79 433.04 290.617C433.315 290.444 433.597 290.25 433.885 290.037C434.174 289.824 434.455 289.631 434.731 289.457C435.019 289.244 435.282 289.11 435.518 289.056C436.097 288.893 436.742 288.862 437.454 288.962C438.167 289.062 438.858 289.023 439.529 288.847C439.713 288.819 439.943 288.718 440.218 288.545C440.494 288.371 440.769 288.198 441.044 288.024C441.372 287.824 441.667 287.657 441.93 287.523C442.192 287.39 442.423 287.355 442.621 287.419C442.7 287.445 442.793 287.497 442.899 287.575C443.018 287.614 443.117 287.646 443.196 287.672C443.275 287.697 443.65 287.556 444.319 287.248C445.028 286.952 445.646 286.737 446.172 286.601C446.317 286.56 446.421 286.441 446.485 286.242C446.602 286.018 446.733 285.885 446.878 285.844C447.127 285.75 447.483 285.734 447.945 285.796C448.419 285.819 448.893 285.776 449.367 285.666C449.748 285.571 450.05 285.45 450.273 285.304C450.496 285.157 450.885 285.174 451.439 285.354C452.828 285.936 453.834 286.547 454.458 287.188C455.082 287.829 455.411 288.571 455.444 289.414C455.529 290.23 455.386 291.213 455.013 292.362C454.692 293.485 454.274 294.838 453.76 296.424ZM445.318 293.683C445.304 293.591 445.191 293.401 444.978 293.113C444.817 292.798 444.73 292.594 444.716 292.502C444.662 292.265 444.666 292.048 444.731 291.85C444.808 291.612 444.859 291.387 444.884 291.176C444.908 290.965 444.881 290.781 444.8 290.624C444.76 290.479 444.601 290.362 444.323 290.272C444.085 290.194 443.684 290.217 443.118 290.34C442.605 290.437 442.033 290.579 441.402 290.769C440.81 290.971 440.239 291.18 439.687 291.395C439.135 291.61 438.748 291.791 438.525 291.938C438.25 292.111 437.831 292.457 437.269 292.975C436.758 293.467 436.222 293.972 435.66 294.49C435.137 295.021 434.659 295.48 434.228 295.865C433.796 296.251 433.56 296.437 433.52 296.424C433.495 296.503 433.463 296.602 433.424 296.721C433.425 296.853 433.413 296.959 433.387 297.038C433.31 297.276 433.08 297.442 432.699 297.537C432.331 297.593 432.063 297.878 431.895 298.394C431.831 298.592 431.774 298.836 431.723 299.126C431.686 299.377 431.635 299.601 431.57 299.799C431.467 300.116 431.226 300.388 430.846 300.615C430.505 300.855 430.237 301.141 430.042 301.472C429.273 302.624 428.473 303.875 427.64 305.226C426.82 306.537 426.185 307.886 425.735 309.273C425.593 309.709 425.511 310.098 425.487 310.441C425.516 310.757 425.788 310.999 426.303 311.166C426.66 311.282 426.937 311.306 427.134 311.239C427.384 311.144 427.6 311.017 427.783 310.858C427.979 310.659 428.149 310.473 428.293 310.3C428.436 310.128 428.587 310.002 428.744 309.921C429.414 309.613 430.169 309.311 431.01 309.014C431.851 308.718 432.699 308.401 433.552 308.065C434.459 307.702 435.325 307.327 436.153 306.938C437.019 306.562 437.787 306.155 438.455 305.714C438.639 305.555 438.86 305.276 439.121 304.879C439.394 304.442 439.714 304.064 440.08 303.745C441.009 302.908 441.896 301.728 442.741 300.206C443.625 298.697 444.382 296.971 445.013 295.03C445.077 294.831 445.128 294.607 445.166 294.356C445.243 294.119 445.294 293.894 445.318 293.683Z" fill="black"/>
<path d="M208.876 162.055C213.47 165.002 220.229 170.538 220.229 170.538L206.929 135.8C204.247 129.923 197.43 127.021 191.339 129.353C185.246 131.686 181.817 138.441 184.146 144.523C186.939 151.819 190.501 153.274 195.674 155.884C200.799 158.471 204.282 159.107 208.876 162.055Z" fill="#CDA2AC" fill-opacity="0.5"/>
<path d="M223.664 156.393C222.213 161.655 220.88 170.289 220.88 170.289L207.58 135.551C205.65 129.386 208.787 122.673 214.878 120.341C220.97 118.009 228.034 120.747 230.362 126.828C233.156 134.125 231.476 137.586 229.369 142.983C227.282 148.331 225.114 151.13 223.664 156.393Z" fill="#CDA2AC" fill-opacity="0.5"/>
<path d="M84 190.5C78.5 196.5 60 208.5 30 208.5C1.90735e-06 208.5 -0.333333 181 1.5 166" stroke="black"/>
<path d="M24.5 152.5C32.5 152.667 50.9 155.4 60.5 165" stroke="black"/>
</svg>
